#!OML:ASF I:\Actors\actors\Patient Classification 1\Patient 1\Session 1\Subject1.ASF
:FULLY-SPECIFIED
:DEGREES
849
root 0.554058 17.4939 9.25947 9.53807 -0.504728 -8.07676
lowerback -2.90237 1.44833 7.55026
upperback -5.9201 1.95804 0.636137
thorax -4.31427 0.668396 -3.57528
lowerneck -9.38768 -6.49281 -5.08081
upperneck 27.9375 -10.9254 9.0383
head 11.4123 -4.50546 2.76411
rclavicle 8.24956e-015 -2.46493e-014
rhumerus -23.7301 32.2611 -96.5894
rradius 131.602
rwrist -8.17646
rhand 4.95366 -54.2404
rfingers 7.12502
rthumb 30.3258 -441.768
lclavicle 8.24956e-015 -2.46493e-014
lhumerus -64.9547 50.8617 32.8072
lradius 27.2514
lwrist -13.632
lhand -31.7464 -31.9091
lfingers 7.12502
lthumb -5.00391 -1.98817
rfemur -3.10243 26.1365 25.1671
rtibia 1.511
rfoot -13.3833 -28.2195
rtoes 8.90859
lfemur 7.59744 -51.9409 -14.9519
ltibia -5.18302
lfoot -31.5725 58.3508
ltoes 18.2314
850
root 0.555642 17.4936 9.26012 9.52805 -0.550149 -8.08489
lowerback -2.88602 1.45472 7.64755
upperback -5.95264 1.96954 0.631787
thorax -4.35506 0.667389 -3.63495
lowerneck -9.42038 -6.45333 -5.21936
upperneck 28.0611 -10.8623 9.07104
head 11.4716 -4.48312 2.8093
rclavicle -1.26228e-014 -4.69132e-014
rhumerus -24.107 32.0273 -97.0309
rradius 131.548
rwrist -8.05577
rhand 5.12415 -54.0974
rfingers 7.12502
rthumb 30.4884 -441.595
lclavicle -1.26228e-014 -4.69132e-014
lhumerus -65.0907 50.9974 32.6776
lradius 27.2013
lwrist -13.1789
lhand -31.9664 -30.9376
lfingers 7.12502
lthumb -5.21629 -1.02183
rfemur -3.08329 26.1995 25.1765
rtibia 1.49727
rfoot -13.3358 -28.2561
rtoes 8.75481
lfemur 7.67704 -51.9768 -15.009
ltibia -5.20345
lfoot -31.6771 58.3908
ltoes 18.2776
851
root 0.556897 17.4938 9.25954 9.5192 -0.602426 -8.10363
lowerback -2.84783 1.46085 7.76363
upperback -5.99537 1.98342 0.628569
thorax -4.41856 0.665554 -3.70467
lowerneck -9.39795 -6.40401 -5.34989
upperneck 28.0959 -10.7847 9.12706
head 11.4848 -4.45521 2.86448
rclavicle 1.29955e-014 -2.26615e-014
rhumerus -24.3596 31.8438 -97.3383
rradius 131.519
rwrist -8.14631
rhand 5.20238 -53.919
rfingers 7.12502
rthumb 30.563 -441.403
lclavicle 1.29955e-014 -2.26615e-014
lhumerus -65.5709 51.2177 32.07
lradius 27.0757
lwrist -13.4291
lhand -31.9671 -30.7143
lfingers 7.12502
lthumb -5.21697 -0.798564
rfemur -3.07883 26.2911 25.1988
rtibia 1.51184
rfoot -13.3168 -28.2961
rtoes 8.64834
lfemur 7.75666 -52.0165 -15.0587
ltibia -5.21191
lfoot -31.9006 58.438
ltoes 18.286
852
root 0.558551 17.494 9.25927 9.52535 -0.656023 -8.13076
lowerback -2.81693 1.48539 7.90424
upperback -6.0581 2.02195 0.611287
thorax -4.49536 0.673427 -3.8029
lowerneck -9.3408 -6.3904 -5.50345
upperneck 28.0853 -10.77 9.24817
head 11.485 -4.4533 2.93921
rclavicle -9.7156e-015 2.26615e-014
rhumerus -24.5491 31.683 -97.5277
rradius 131.55
rwrist -8.38574
rhand 5.18055 -53.8418
rfingers 7.12502
rthumb 30.5422 -441.33
lclavicle -9.7156e-015 2.26615e-014
lhumerus -66.4202 51.5959 30.8573
lradius 26.7699
lwrist -14.4185
lhand -31.7398 -31.3887
lfingers 7.12502
lthumb -4.99752 -1.4676
rfemur -3.09704 26.337 25.2168
rtibia 1.52445
rfoot -13.267 -28.3058
rtoes 8.46076
lfemur 7.77021 -51.9931 -15.047
ltibia -5.21471
lfoot -32.042 58.4186
ltoes 18.5094
853
root 0.560802 17.4931 9.25865 9.54595 -0.707808 -8.10421
lowerback -2.82602 1.50771 7.97478
upperback -6.11904 2.05293 0.576582
thorax -4.54899 0.68105 -3.87916
lowerneck -9.30855 -6.3553 -5.60965
upperneck 28.1552 -10.7278 9.32156
head 11.5128 -4.43642 2.99277
rclavicle -1.14301e-015 4.77083e-015
rhumerus -24.6382 31.5634 -97.6253
rradius 131.604
rwrist -8.54684
rhand 5.24747 -53.9332
rfingers 7.12502
rthumb 30.606 -441.409
lclavicle -1.14301e-015 4.77083e-015
lhumerus -67.0157 51.9349 29.9217
lradius 26.4762
lwrist -14.9649
lhand -31.649 -31.7734
lfingers 7.12502
lthumb -4.90985 -1.8503
rfemur -3.13425 26.3286 25.1559
rtibia 1.52345
rfoot -13.2052 -28.2777
rtoes 8.42
lfemur 7.71985 -51.9107 -15.0473
ltibia -5.20329
lfoot -32.1718 58.3269
ltoes 18.6825
854
root 0.562909 17.4924 9.25672 9.5463 -0.771082 -8.03891
lowerback -2.79851 1.53752 8.00229
upperback -6.17219 2.09628 0.520611
thorax -4.61343 0.69594 -3.95471
lowerneck -9.4081 -6.35948 -5.73172
upperneck 28.3543 -10.7355 9.34469
head 11.6207 -4.44157 3.02134
rclavicle 1.56543e-014 -1.78906e-014
rhumerus -24.6503 31.4823 -97.6584
rradius 131.652
rwrist -8.47445
rhand 5.35248 -54.0007
rfingers 7.12502
rthumb 30.7061 -441.458
lclavicle 1.56543e-014 -1.78906e-014
lhumerus -67.2813 52.1666 29.4206
lradius 26.2961
lwrist -15.0598
lhand -31.5915 -31.7139
lfingers 7.12502
lthumb -4.85432 -1.78951
rfemur -3.15471 26.3305 25.0569
rtibia 1.53255
rfoot -13.2234 -28.2264
rtoes 8.66974
lfemur 7.70254 -51.837 -15.1205
ltibia -5.18624
lfoot -32.2202 58.2773
ltoes 18.6572
855
root 0.564924 17.4927 9.25514 9.52008 -0.832439 -8.01022
lowerback -2.71021 1.58028 8.09463
upperback -6.23951 2.16356 0.454849
thorax -4.72295 0.717206 -4.07894
lowerneck -9.22686 -6.33591 -5.61801
upperneck 28.0939 -10.6479 9.17267
head 11.455 -4.4225 2.95163
rclavicle 5.26779e-015 4.21423e-014
rhumerus -24.6494 31.4336 -97.6643
rradius 131.682
rwrist -8.29734
rhand 5.34491 -54.02
rfingers 7.12502
rthumb 30.6989 -441.478
lclavicle 5.26779e-015 4.21423e-014
lhumerus -67.5877 52.4045 28.9072
lradius 26.2236
lwrist -15.2424
lhand -31.5362 -31.4991
lfingers 7.12502
lthumb -4.80094 -1.57351
rfemur -3.13847 26.3402 25.0181
rtibia 1.52739
rfoot -13.2359 -28.1871
rtoes 8.77508
lfemur 7.72397 -51.7192 -15.1722
ltibia -5.19979
lfoot -32.083 58.2438
ltoes 18.6128
856
root 0.566654 17.4929 9.25425 9.501 -0.876348 -8.01773
lowerback -2.87003 1.5536 8.07391
upperback -6.15386 2.10948 0.517407
thorax -4.55034 0.702152 -3.99563
lowerneck -9.02558 -6.20675 -5.22523
upperneck 27.5853 -10.3774 8.79877
head 11.1453 -4.32085 2.78363
rclavicle -9.83984e-015 -2.0276e-014
rhumerus -24.3139 31.6846 -97.4334
rradius 131.64
rwrist -8.19991
rhand 5.265 -53.9912
rfingers 7.12502
rthumb 30.6227 -441.464
lclavicle -9.83984e-015 -2.0276e-014
lhumerus -68.1116 52.9739 28.2856
lradius 26.2437
lwrist -15.5295
lhand -31.6084 -31.0569
lfingers 7.12502
lthumb -4.87066 -1.13284
rfemur -3.10453 26.4453 25.0393
rtibia 1.51787
rfoot -13.2805 -28.2334
rtoes 8.8618
lfemur 7.68522 -51.4792 -15.117
ltibia -5.22628
lfoot -31.8732 58.1116
ltoes 18.5554
857
root 0.568211 17.4932 9.25453 9.4795 -0.915348 -8.0169
lowerback -3.27302 1.48388 7.89945
upperback -5.89147 1.9682 0.685727
thorax -4.06908 0.669538 -3.70764
lowerneck -9.40453 -6.16106 -5.51096
upperneck 27.5454 -10.265 8.89257
head 11.2183 -4.27671 2.86974
rclavicle 4.84538e-015 1.47101e-014
rhumerus -23.624 32.1649 -96.9215
rradius 131.586
rwrist -8.16543
rhand 5.13132 -53.8869
rfingers 7.12502
rthumb 30.4952 -441.383
lclavicle 4.84538e-015 1.47101e-014
lhumerus -68.0939 53.5994 28.4944
lradius 26.3798
lwrist -15.0739
lhand -31.8153 -30.2364
lfingers 7.12502
lthumb -5.07037 -0.317101
rfemur -3.04276 26.5854 25.0634
rtibia 1.49704
rfoot -13.3277 -28.3001
rtoes 8.9075
lfemur 7.64888 -51.2136 -15.0773
ltibia -5.24565
lfoot -31.4218 58.0027
ltoes 18.1828
858
root 0.569657 17.4934 9.25479 9.45177 -0.939288 -8.00334
lowerback -3.44955 1.47413 7.82811
upperback -5.76909 1.93373 0.751853
thorax -3.84699 0.668565 -3.59282
lowerneck -9.58998 -6.10666 -5.33442
upperneck 27.4483 -10.1475 8.6936
head 11.1854 -4.22349 2.77613
rclavicle 1.15544e-014 2.10712e-014
rhumerus -23.1647 32.4216 -96.5187
rradius 131.581
rwrist -8.13031
rhand 4.96199 -53.8605
rfingers 7.12502
rthumb 30.3337 -441.387
lclavicle 1.15544e-014 2.10712e-014
lhumerus -67.6217 53.8249 29.1702
lradius 26.5179
lwrist -14.4457
lhand -31.9412 -29.8942
lfingers 7.12502
lthumb -5.19194 0.0221757
rfemur -2.99217 26.5885 25.0602
rtibia 1.47055
rfoot -13.2884 -28.2866
rtoes 8.85312
lfemur 7.66702 -51.0994 -15.1125
ltibia -5.2513
lfoot -31.0957 57.9758
ltoes 17.9101
